<svg width="31" height="31" viewBox="0 0 31 31" fill="none" xmlns="http://www.w3.org/2000/svg">
<path d="M17.1792 22.3135C16.9209 22.0552 16.7969 21.743 16.8072 21.3771C16.8175 21.0111 16.9523 20.699 17.2115 20.4406L20.8604 16.7917H6.45836C6.09239 16.7917 5.7854 16.6677 5.5374 16.4197C5.2894 16.1717 5.16583 15.8651 5.16669 15.5C5.16669 15.134 5.29069 14.827 5.53869 14.579C5.78669 14.331 6.09325 14.2075 6.45836 14.2083H20.8604L17.1792 10.5271C16.9209 10.2687 16.7917 9.96176 16.7917 9.60612C16.7917 9.25048 16.9209 8.94392 17.1792 8.68645C17.4375 8.42812 17.7445 8.29895 18.1001 8.29895C18.4558 8.29895 18.7623 8.42812 19.0198 8.68645L24.9292 14.5958C25.0584 14.725 25.1501 14.8649 25.2043 15.0156C25.2586 15.1663 25.2853 15.3278 25.2844 15.5C25.2844 15.6722 25.2573 15.8337 25.203 15.9844C25.1488 16.1351 25.0575 16.275 24.9292 16.4042L18.9875 22.3458C18.7507 22.5826 18.4549 22.701 18.1001 22.701C17.7454 22.701 17.4384 22.5719 17.1792 22.3135Z" fill="black"/>
</svg>
