<svg width="328" height="318" viewBox="0 0 328 318" fill="none" xmlns="http://www.w3.org/2000/svg">
<path fill-rule="evenodd" clip-rule="evenodd" d="M0.520994 79.3241C0.270994 206.573 70.021 258.573 218.02 241.573C241.27 238.823 241.27 238.573 222.77 251.573C201.77 266.323 156.771 310.073 159.021 313.823C165.27 323.823 184.77 314.576 213.52 288.326C240.77 263.326 273.27 241.323 295.77 232.823C334.52 218.073 338.27 204.823 305.27 199.823C279.02 195.823 261.77 187.826 220.27 159.576C186.52 136.574 179.02 134.574 163.021 142.824C141.271 154.074 153.52 169.073 213.27 204.323C232.52 215.573 230.52 216.823 189.52 216.823C76.27 216.823 23.0202 140.824 46.0202 12.8238C49.7702 -7.4262 0.770994 -13.176 0.520994 79.3241Z" fill="black"/>
</svg>
