<svg width="1440" height="869" viewBox="0 0 1440 869" fill="none" xmlns="http://www.w3.org/2000/svg">
<path opacity="0.7" d="M222.943 276.536C268.785 299.099 292.661 374.132 319.758 431.921C347.175 489.541 378.133 529.748 386.232 577.877C394.162 625.685 379.385 680.926 343.399 705.16C307.413 729.393 250.217 722.62 207.018 710.537C163.987 698.775 134.952 681.703 79.6486 672.299C24.5138 663.215 -57.6997 661.814 -90.5015 626.668C-123.472 591.202 -107.672 522.327 -77.5505 464.343C-47.2606 406.679 -2.48065 360.225 53.6521 322.129C109.785 284.033 177.423 253.805 222.943 276.536Z" fill="#FFAAAA"/>
<path opacity="0.7" d="M1524.35 56.7014C1521.57 110.088 1414.04 154.176 1301.63 196.872C1188.91 238.997 1071.5 280.743 1007.97 222.804C944.762 165.434 935.307 8.82135 996.603 -64.7735C1057.58 -138.938 1189.44 -130.529 1306.29 -94.76C1423.71 -59.3076 1526.56 3.63121 1524.35 56.7014Z" fill="#F0DCCF"/>
<path opacity="0.8" d="M1250.26 287.419C1320.53 350.975 1381.58 425.261 1393 510.278C1404.42 595.294 1366.21 691.453 1295.94 737.676C1226.11 783.898 1123.77 780.184 1034.62 768.216C945.46 756.247 869.478 735.2 807.552 688.977C745.625 642.755 697.752 571.357 691.603 493.77C685.894 416.595 721.03 333.229 782.957 270.086C844.883 206.53 933.601 162.783 1017.05 167.323C1100.94 171.863 1179.99 224.276 1250.26 287.419Z" fill="#E5F2C9"/>
</svg>
