<svg width="155" height="155" viewBox="0 0 155 155" fill="none" xmlns="http://www.w3.org/2000/svg">
<path d="M32.2013 40.2031V34.9062C32.2013 34.354 32.649 33.9062 33.2013 33.9062H83.221C83.7733 33.9062 84.221 34.354 84.221 34.9063V40.2031M32.2013 40.2031C24.8561 64.8432 22.5926 79.6791 22.2853 107.874C22.2826 108.118 22.3683 108.36 22.5308 108.542C34.5412 122.002 61.6353 124.173 84.221 114.312M32.2013 40.2031H38.976M84.221 114.312C89.0498 112.226 91.2087 109.836 93.6061 102.6C93.6396 102.499 93.6571 102.389 93.657 102.282C93.6279 75.4058 90.9193 62.2535 84.221 40.2031M84.221 114.312C80.7832 85.7646 80.829 69.5338 84.221 40.2031M84.221 40.2031H49.6219M89.302 93.2422L89.7859 95.9062M27.6042 101.477V105.109M31.2335 107.047V109.469M77.6883 46.2578V49.1641M73.3332 52.0703V55.2188M77.6883 56.6719V59.5781M113.981 71.1362C108.917 72.5484 104.073 72.9199 98.147 72.683C97.768 72.6678 97.4301 72.4344 97.2783 72.0869C93.3243 63.0342 91.9357 57.3 91.0437 46.832C91.0136 46.4786 91.1784 46.1291 91.4693 45.9261C104.222 37.0288 111.975 34.4569 125.931 33.9286C126.314 33.9141 126.678 34.1253 126.854 34.4664C131.85 44.1497 132.984 50.4131 132.629 61.9313C132.619 62.2732 132.432 62.5904 132.136 62.7631C124.842 67.0305 119.291 69.6554 113.981 71.1362ZM113.981 71.1362C113.981 71.1362 114.707 102.445 116.885 107.047C117.995 109.394 119.934 111.317 122.45 110.68C124.686 110.113 125.607 108.133 125.837 105.836C126.321 100.992 113.981 71.1362 113.981 71.1362ZM120.756 41.8984C121.835 47.9117 122.784 51.309 124.869 57.3984M112.288 45.0469C114.416 51.71 115.797 55.225 119.062 60.5469M104.303 47.4688C106.29 54.4816 107.403 58.0117 109.384 63.2109M97.5284 50.1328C98.6 56.9315 99.6558 60.6076 102.609 66.8438" stroke="black" stroke-width="5" stroke-linecap="round"/>
</svg>
