<svg width="1440" height="686" viewBox="0 0 1440 686" fill="none" xmlns="http://www.w3.org/2000/svg">
<path opacity="0.79" d="M1439.59 298.366C1495.14 349.445 1568.36 418.665 1548.17 454.979C1528.17 490.879 1414.95 493.46 1342.31 499.158C1269.68 504.856 1237.39 513.067 1197.14 520.121C1156.48 526.985 1107.43 532.501 1065.69 512.318C1023.34 492.359 988.119 447.113 965.421 386.582C942.499 325.447 932.517 249.216 962.243 193.237C992.192 137.861 1062.67 103.116 1126.59 104.431C1190.92 105.936 1249.09 143.69 1297.42 178.925C1345.75 214.159 1383.62 247.098 1439.59 298.366Z" fill="#FFAAAA"/>
<path opacity="0.7" d="M397.85 269.659C439.438 410.016 426.512 568.602 346.707 633.008C266.341 696.807 119.095 666.427 4.44624 578.324C-109.641 490.22 -191.693 345.002 -160.221 220.442C-128.187 95.8824 16.8104 -8.01863 137.641 0.487892C259.035 8.99441 355.699 129.909 397.85 269.659Z" fill="#F0DCCF"/>
</svg>
